<?xml version="1.0" encoding="utf-8"?>
<!-- Generator: Adobe Illustrator 24.0.0, SVG Export Plug-In . SVG Version: 6.00 Build 0)  -->
<svg version="1.1" id="Layer_1" xmlns="http://www.w3.org/2000/svg" xmlns:xlink="http://www.w3.org/1999/xlink" x="0px" y="0px"
	 viewBox="0 0 500 140.34" enable-background="new 0 0 500 140.34" xml:space="preserve">
<g>
	<g>
		<path fill-rule="evenodd" clip-rule="evenodd" fill="#51B067" d="M0-0.002v110.11l56.138,30.234l56.134-30.237V-0.002H0z
			 M14.034,102.007V14.032h84.206V102l-35.086,18.445v-12.22l21.048-12.157V82.033L56.138,98.239L28.069,82.033v14.034l21.273,12.28
			v12.213L14.034,102.007z M52.628,33.057l-24.56-14.182V32.91l24.56,14.182V33.057z M84.206,18.877l-24.56,14.182v14.034
			l24.56-14.182V18.877z M52.628,54.109l-24.56-14.182v14.034l24.56,14.182V54.109z M84.206,39.929L59.646,54.11v14.034
			l24.56-14.182V39.929z M52.628,75.162L28.068,60.98v14.034l24.56,14.182V75.162z M84.206,60.98l-24.56,14.182v14.034l24.56-14.182
			V60.98z"/>
		<path fill-rule="evenodd" clip-rule="evenodd" fill="#303231" d="M318.224,78.342c1.552-6.897,3.102-13.795,4.655-20.692
			c0.391-1.716,0.996-5.424,0.996-5.424h0.2c-0.003,0,0.585,3.71,0.982,5.427c1.523,6.906,3.044,13.815,4.568,20.73
			C325.825,78.362,322.025,78.347,318.224,78.342L318.224,78.342z M316.629,35.414h14.673c5.489,21.113,10.983,42.27,16.481,63.541
			c-4.53-0.076-9.06-0.134-13.59-0.181c-0.762-3.324-1.521-6.649-2.279-9.973c-5.358-0.041-10.717-0.064-16.072-0.073
			c-0.727,3.313-1.451,6.622-2.178,9.938c-4.498-0.003-8.993,0.006-13.486,0.032C305.663,77.573,311.151,56.498,316.629,35.414z
			 M143.232,35.084h37.367c0.959,4.003,1.92,7.991,2.882,11.973c-5.025,0.053-10.048,0.108-15.076,0.17
			c-0.009,18.619-0.014,37.238-0.023,55.857c-4.327,0.287-8.652,0.585-12.973,0.895c0.006-18.865,0.012-37.726,0.017-56.591
			c-5.028,0.061-10.056,0.129-15.082,0.202C141.309,43.408,142.27,39.239,143.232,35.084z M192.134,46.961
			c-0.962-3.95-1.92-7.909-2.879-11.877h15.777c-0.017,21.964-0.035,43.928-0.049,65.888c-4.298,0.211-8.591,0.439-12.889,0.675
			C192.108,83.418,192.123,65.188,192.134,46.961z M229.482,35.084c-0.014,17.751-0.026,35.501-0.041,53.249
			c7.704-0.24,15.409-0.444,23.113-0.62c-0.965,3.836-1.932,7.675-2.899,11.52c-11.038,0.319-22.076,0.719-33.112,1.205
			c0.014-17.9,0.026-35.796,0.041-53.693c0.003-3.886,0.006-7.772,0.009-11.66H229.482z M272.335,35.084
			c-0.009,17.42-0.017,34.84-0.026,52.257c7.707-0.114,15.412-0.196,23.122-0.246c-0.965,3.772-1.929,7.549-2.896,11.327
			c-11.038,0.099-22.079,0.287-33.118,0.553c0.012-17.499,0.02-34.995,0.032-52.491c0.003-3.798,0.003-7.599,0.006-11.4H272.335z
			 M417.715,35.427c0.014,18.02,0.029,36.036,0.043,54.053c7.702,0.31,15.4,0.652,23.099,1.026
			c-0.962,3.944-1.923,7.877-2.882,11.801c-11.027-0.64-22.059-1.193-33.092-1.664c-0.014-17.862-0.026-35.72-0.041-53.582
			l-0.009-11.637C409.127,35.427,413.423,35.427,417.715,35.427z M460.222,77.284c0,4.748,0.003,9.494,0.006,14.239
			c7.991,0.45,15.977,0.936,23.959,1.456c-0.962,4.105-1.923,8.195-2.885,12.277c-11.308-0.883-22.618-1.675-33.937-2.386
			c-0.009-18.467-0.023-36.934-0.032-55.401c-0.965-4.023-1.932-8.035-2.899-12.034c12.289,0.003,24.576,0.006,36.863,0.012
			c0.965,4.155,1.926,8.324,2.891,12.508c-7.991-0.117-15.985-0.225-23.979-0.325c0.003,5.821,0.006,11.643,0.009,17.464
			c3.699,0.111,7.4,0.225,11.099,0.342c2.074-0.412,4.145-0.827,6.219-1.246c0.003,5.105,0.003,10.207,0.003,15.312
			c-2.074-0.585-4.145-1.164-6.219-1.734C467.623,77.6,463.921,77.439,460.222,77.284z M387.294,63.443
			c5.24,4.155,8.579,7.134,8.582,16.002c0.012,11.54-3.166,20.666-25.167,20.005c-5.353-0.14-10.705-0.266-16.055-0.374
			c-0.006-10.657-0.012-21.318-0.017-31.978c0-3.459-0.003-6.921-0.003-10.38c-0.003-3.316-0.003-6.628-0.006-9.944
			c-0.967-3.74-1.932-7.476-2.896-11.213c-0.009-0.079,0.072-0.146,0.159-0.146c7.484,0.003,14.972,0.003,22.459,0.003
			c13.911-0.012,18.273,7.663,18.282,13.929C392.635,56.803,390.804,60.18,387.294,63.443z M373.675,87.927
			c8.266,0.199,9.654-4.044,9.651-9.339c-0.003-5.672-2.563-10.318-9.167-10.412c-2.219-0.032-4.431-0.061-6.653-0.091
			c0.006,6.567,0.009,13.137,0.014,19.707C369.571,87.836,371.621,87.88,373.675,87.927z M367.494,46.85
			c0.003,3.792,0.003,7.581,0.006,11.377c0,0.029,0.023,0.053,0.058,0.053c1.628,0.015,3.256,0.032,4.88,0.047
			c4.145,0.044,7.739-1.009,7.736-6.497c-0.003-2.743-1.761-4.979-7.261-5.009c-1.787-0.009-3.574-0.015-5.364-0.023
			C367.511,46.797,367.497,46.818,367.494,46.85z"/>
	</g>
	<g>
		<path fill="#303231" d="M489.461,36.077h-1.902v-0.853h4.872v0.853h-1.883v5.396h-1.086V36.077z M493.537,35.224h1.494
			l1.748,4.386l1.708-4.386H500v6.249h-1.086v-4.872l-1.999,4.872h-0.37l-2.018-4.872v4.872h-0.99V35.224z"/>
	</g>
</g>
</svg>
